<?xml version="1.0" standalone="no"?>
<!DOCTYPE svg PUBLIC "-//W3C//DTD SVG 20010904//EN"
 "http://www.w3.org/TR/2001/REC-SVG-20010904/DTD/svg10.dtd">
<svg version="1.0" xmlns="http://www.w3.org/2000/svg"
 width="540.000000pt" height="475.000000pt" viewBox="0 0 540.000000 475.000000"
 preserveAspectRatio="xMidYMid meet">

<g transform="translate(0.000000,475.000000) scale(0.100000,-0.100000)"
fill="#000000" stroke="none">
<path d="M65 4730 c19 -21 19 -21 -21 -17 -21 3 -31 3 -22 0 9 -2 21 -17 27
-34 5 -16 16 -29 23 -29 8 0 5 -5 -5 -11 -14 -8 -23 -7 -36 5 -10 9 -21 16
-24 16 -4 0 -7 -1048 -7 -2330 l0 -2330 534 0 c585 0 546 -4 546 58 -1 26 -1
26 -16 7 -15 -19 -15 -19 -12 5 2 14 19 40 37 59 l32 35 -7 -65 c-3 -35 -11
-72 -16 -82 -8 -15 -3 -17 35 -17 43 0 45 1 61 45 10 25 21 43 26 40 11 -7 -6
-66 -22 -77 -8 -5 -1 -8 19 -8 18 0 32 3 31 8 -1 4 6 21 15 39 23 42 21 54 -3
24 -11 -13 -20 -18 -20 -12 0 21 30 71 67 112 33 37 35 41 20 56 -15 15 -19
13 -60 -28 -24 -25 -49 -53 -55 -64 -10 -17 -11 -11 -12 37 0 56 24 128 42
128 5 0 6 -6 3 -13 -4 -6 2 -2 12 9 23 27 80 39 101 22 13 -11 14 -11 8 1 -7
10 -3 12 15 7 20 -6 21 -5 7 4 -31 19 -123 23 -154 7 -37 -20 -91 -73 -99 -98
-4 -10 -9 -19 -13 -19 -22 1 -52 45 -52 75 0 26 -29 50 -43 36 -8 -8 -8 -11 1
-11 7 0 12 -9 12 -20 0 -11 -3 -19 -7 -19 -21 3 -32 -3 -38 -20 -3 -11 -12
-21 -19 -24 -10 -4 -11 4 -3 36 16 70 25 87 42 81 18 -7 20 7 3 24 -9 9 -8 12
6 12 12 0 16 5 12 15 -3 8 -9 22 -12 30 -4 10 0 15 10 15 12 0 16 -10 16 -42
0 -50 7 -63 37 -72 26 -8 30 5 8 24 -17 14 -20 40 -4 40 6 0 -4 18 -21 40 -17
22 -37 37 -42 34 -7 -4 -8 -2 -4 4 3 6 -2 16 -11 22 -17 11 -17 11 0 6 9 -3
17 -1 17 5 0 6 7 9 15 5 8 -3 15 0 15 7 1 13 43 -30 72 -73 15 -21 19 -23 27
-10 13 19 14 33 2 26 -5 -3 -12 1 -15 10 -5 12 -2 15 11 9 10 -3 39 -10 66
-15 26 -5 56 -14 67 -20 11 -6 20 -8 20 -5 0 3 12 -1 28 -10 45 -26 175 -66
185 -56 4 4 8 51 8 102 0 52 13 218 28 368 33 321 25 305 149 316 116 10 109
4 117 98 5 45 10 76 12 70 11 -33 35 2 39 57 1 14 4 39 8 55 3 17 9 55 14 85
9 65 17 80 40 80 13 0 12 5 -8 21 -14 11 -20 18 -14 15 19 -9 89 23 76 36 -7
7 -17 6 -31 -2 -12 -6 -27 -9 -34 -6 -7 2 -4 5 7 5 15 1 17 6 13 31 -5 21 -2
32 9 38 14 8 14 10 1 15 -18 7 -17 99 1 133 10 19 9 23 -9 27 -14 4 -19 11
-16 24 11 36 17 179 8 158 -5 -11 -10 -33 -10 -49 -1 -16 -4 -27 -7 -24 -3 4
0 59 7 123 7 64 16 110 20 103 4 -6 5 -16 3 -20 -3 -4 2 -8 10 -8 10 0 16 -9
17 -22 1 -17 2 -19 6 -5 2 9 8 17 13 17 4 0 6 -10 2 -22 l-5 -22 32 23 c27 19
34 21 49 10 9 -7 14 -9 10 -5 -4 5 0 15 10 22 16 12 16 12 -2 11 -13 -1 -20 6
-22 23 -3 19 -2 22 6 10 9 -13 10 -13 11 0 1 8 1 19 0 23 -1 5 3 6 9 2 6 -4 8
-15 5 -25 -9 -29 10 -32 35 -5 13 14 27 25 31 25 3 0 -11 -17 -32 -39 -33 -33
-39 -45 -39 -82 0 -24 -4 -39 -8 -33 -8 14 -29 6 -65 -22 -30 -24 -34 -46 -12
-64 17 -14 39 -4 31 16 -3 8 -1 14 4 14 6 0 10 -4 10 -9 0 -5 6 -11 14 -14 11
-4 13 2 10 26 -3 25 -2 28 5 12 5 -11 21 -31 36 -45 25 -23 34 -25 123 -25
116 0 180 23 206 74 24 45 11 107 -30 149 -17 17 -29 32 -25 32 4 0 13 -6 20
-12 6 -7 17 -13 23 -13 11 0 13 -7 25 -68 3 -15 9 -30 14 -33 5 -3 6 2 3 10
-5 12 0 16 19 16 29 0 71 45 62 68 -9 24 19 42 52 33 17 -5 42 -6 57 -4 49 10
85 -54 40 -71 -8 -3 -14 -16 -14 -28 0 -42 -5 -73 -14 -87 -5 -7 -5 -16 0 -20
18 -13 9 -46 -12 -49 -12 -2 -25 -11 -28 -20 -3 -9 -9 -23 -12 -29 -9 -19 17
-15 32 5 12 16 13 16 14 0 0 -9 7 -21 16 -26 9 -5 17 -21 17 -35 -1 -17 4 -24
13 -20 9 3 14 -2 14 -15 0 -12 5 -24 10 -27 7 -4 7 -11 2 -18 -5 -7 -10 -34
-11 -62 -1 -27 -7 -52 -12 -56 -19 -11 6 -236 35 -319 15 -41 28 -82 29 -90 1
-8 15 -21 32 -30 22 -12 32 -26 42 -65 13 -53 7 -65 -29 -65 -19 0 -21 -17
-10 -58 4 -13 11 -22 16 -20 8 2 218 -932 212 -939 -1 -1 -36 8 -77 20 -64 20
-74 26 -77 47 -2 14 -7 29 -12 33 -12 13 -50 -2 -50 -19 0 -25 -17 -7 -23 25
-6 28 -8 29 -49 24 -24 -3 -48 -10 -54 -14 -15 -12 -24 -1 -24 29 0 24 -1 24
-59 18 l-59 -7 -7 37 -6 36 -46 -5 c-25 -3 -49 -11 -53 -18 -6 -8 -11 0 -15
23 -7 35 -7 36 -48 31 -23 -3 -47 -10 -54 -15 -15 -12 -19 14 -32 206 -6 82
-13 151 -15 154 -3 2 -26 0 -52 -4 l-47 -9 2 -90 c1 -49 4 -121 8 -158 l6 -68
-27 7 c-15 3 -73 21 -128 39 -56 18 -107 31 -114 28 -7 -2 -17 -16 -22 -31 -9
-24 -32 -294 -32 -376 l0 -29 -25 23 c-25 24 -65 37 -65 22 0 -15 47 -72 53
-65 4 3 7 0 7 -8 0 -8 11 -16 26 -17 17 -1 23 2 18 11 -5 9 -4 9 7 -1 17 -16
116 -16 122 1 3 9 9 9 26 0 29 -18 31 -17 31 12 0 14 1 25 3 25 2 0 37 -11 77
-25 40 -14 94 -25 119 -24 l46 1 -50 17 c-29 10 -51 25 -53 34 -5 23 -2 22
111 -18 l98 -35 1479 0 1480 0 0 1749 0 1750 -27 19 c-58 40 -99 55 -163 58
-36 1 -90 12 -120 23 -30 11 -63 20 -72 21 -9 0 -29 13 -45 28 -20 20 -42 31
-76 35 -67 9 -127 42 -128 70 -1 12 -3 31 -5 42 -7 42 -21 201 -19 223 1 12
-1 22 -6 22 -12 0 -39 60 -39 86 0 17 -4 22 -15 18 -9 -4 -19 4 -27 23 -7 15
-17 31 -23 35 -6 5 -5 8 3 8 7 0 20 -7 28 -15 17 -16 34 -20 34 -7 0 5 -17 17
-37 29 -22 11 -37 26 -37 36 1 9 -1 15 -5 14 -7 -2 -9 0 -73 54 -21 17 -43 32
-50 33 -7 2 -22 7 -33 11 -95 39 -129 47 -215 52 -77 5 -103 3 -131 -11 -18
-9 -47 -17 -64 -18 -16 -1 -37 -6 -45 -12 -8 -6 -26 -17 -38 -24 l-24 -13 6
113 c4 62 9 155 12 206 4 55 2 92 -4 92 -11 0 -22 -102 -23 -215 0 -44 -3 -98
-8 -120 l-7 -40 -8 30 c-20 77 -91 205 -113 205 -7 0 -13 4 -13 8 0 4 -8 9
-17 10 -41 4 -55 9 -74 25 -21 19 -33 22 -24 7 4 -6 -9 -10 -33 -10 -50 0
-158 -49 -195 -88 -26 -27 -33 -44 -55 -136 l-7 -29 -12 26 c-8 18 -9 26 -2
24 6 -1 15 8 19 20 8 18 6 21 -12 18 -11 -3 -17 -1 -14 3 4 4 12 8 17 8 22 3
23 5 9 14 -13 8 -12 10 3 10 9 0 17 5 17 11 0 6 -7 8 -16 5 -9 -3 -12 -2 -9 5
4 6 13 8 20 5 7 -2 25 9 40 26 15 16 45 38 68 49 23 10 37 19 31 19 -7 0 -15
8 -18 17 -6 16 -6 16 12 0 18 -16 20 -16 43 9 17 19 31 24 51 22 16 -3 28 -1
28 3 0 4 -13 9 -29 11 -20 3 -35 -1 -45 -14 -17 -19 -36 -24 -36 -9 0 5 6 12
13 14 9 4 8 8 -3 16 -11 7 -3 9 30 6 l45 -4 -25 19 c-24 19 -62 20 -1794 20
l-1769 0 18 -20z m2560 -40 c3 -5 1 -10 -4 -10 -6 0 -11 5 -11 10 0 6 2 10 4
10 3 0 8 -4 11 -10z m-63 -72 c-9 -9 -15 -9 -24 0 -10 10 -10 15 2 22 20 12
38 -6 22 -22z m1184 -92 c21 -29 17 -36 -15 -36 -20 0 -32 6 -35 18 -4 10 -18
23 -34 29 -25 9 -23 10 21 9 36 -1 52 -6 63 -20z m-1349 -68 c1 -10 -3 -21 -9
-24 -7 -5 -8 -2 -4 5 5 7 1 17 -9 25 -15 11 -15 12 2 12 11 0 20 -8 20 -18z
m1053 13 c0 -5 -7 -11 -15 -15 -15 -5 -20 5 -8 17 9 10 23 9 23 -2z m-871 -40
c-7 -2 -25 -15 -38 -28 -26 -23 -42 -28 -54 -17 -10 10 16 31 33 27 10 -3 21
6 30 21 11 21 16 24 28 14 11 -10 12 -13 1 -17z m-479 -1 c-8 -6 -10 -10 -4
-10 5 0 15 5 22 12 6 6 23 12 38 14 24 3 25 2 9 -10 -12 -8 -14 -15 -7 -20 6
-3 13 -2 17 4 3 5 11 10 16 10 5 0 4 -7 -3 -15 -34 -41 -42 -47 -46 -36 -9 26
-108 1 -163 -41 -20 -16 -39 -28 -42 -28 -12 0 -7 30 9 62 14 27 19 30 50 25
21 -4 37 -1 41 6 10 16 66 47 73 41 2 -3 -2 -9 -10 -14z m274 -6 c3 -8 2 -12
-4 -9 -6 3 -10 10 -10 16 0 14 7 11 14 -7z m46 -46 c0 4 -6 14 -12 22 -11 12
-10 12 2 3 8 -6 26 -9 40 -6 19 3 22 1 12 -9 -6 -6 -12 -19 -12 -27 0 -11 4
-10 15 5 13 18 14 18 8 -5 -4 -15 -2 -22 4 -18 5 3 10 0 10 -8 0 -18 -9 -19
-25 -3 -9 9 -12 9 -12 -2 0 -13 -2 -13 -10 0 -11 15 -10 10 5 -64 3 -13 12
-26 20 -30 9 -3 13 -2 10 4 -3 6 0 10 8 10 19 0 30 27 14 34 -9 3 -8 7 3 15
17 12 31 5 24 -13 -7 -17 22 -29 44 -17 9 4 29 11 45 15 20 5 27 3 27 -9 0
-12 8 -14 40 -9 29 5 40 3 40 -6 0 -9 -14 -11 -50 -8 -33 3 -54 1 -60 -7 -8
-10 3 -12 52 -8 35 3 68 9 73 13 14 11 65 0 65 -14 0 -6 13 -20 29 -31 17 -11
28 -21 27 -23 -2 -2 -57 -6 -122 -8 -66 -3 -115 -2 -111 2 4 5 23 7 42 6 18
-1 36 2 40 8 4 6 -22 10 -74 10 -67 0 -79 -2 -75 -15 4 -10 0 -15 -15 -15 -12
0 -21 6 -21 16 0 8 -5 12 -10 9 -6 -4 -8 -11 -5 -16 4 -5 -6 -9 -20 -9 -15 0
-24 4 -20 10 3 6 -1 10 -9 10 -9 0 -16 8 -17 18 -2 53 -14 80 -45 108 -19 18
-34 37 -34 44 0 6 -7 18 -15 26 -29 30 -14 34 30 10 25 -14 45 -22 45 -18z
m178 -5 c17 -39 15 -46 -13 -39 -14 4 -25 2 -25 -4 0 -5 8 -10 17 -10 13 0 14
-3 6 -11 -9 -9 -16 -7 -29 5 -12 13 -14 20 -5 29 6 6 11 21 11 34 0 31 22 29
38 -4z m782 -33 c0 -11 -2 -20 -4 -20 -2 0 -6 9 -9 20 -3 11 -1 20 4 20 5 0 9
-9 9 -20z m-1040 -30 c0 -5 -5 -10 -11 -10 -5 0 -7 5 -4 10 3 6 8 10 11 10 2
0 4 -4 4 -10z m134 -31 c-8 -13 -24 -1 -24 18 0 13 3 13 15 3 8 -7 12 -16 9
-21z m1072 -16 c-11 -11 -19 6 -11 24 8 17 8 17 12 0 3 -10 2 -21 -1 -24z
m-943 -90 c-7 -2 -19 -2 -25 0 -7 3 -2 5 12 5 14 0 19 -2 13 -5z m-150 -113
c-3 -9 -2 -11 4 -4 18 24 439 38 466 15 9 -7 55 -71 104 -144 48 -73 91 -134
94 -137 3 -3 39 -54 79 -114 71 -107 73 -109 86 -85 23 42 15 3 -11 -53 -28
-61 -31 -90 -10 -108 10 -9 14 -31 14 -75 -1 -34 4 -72 10 -84 10 -18 9 -21
-6 -21 -13 0 -14 -3 -5 -12 7 -7 12 -17 12 -22 0 -6 -5 -3 -11 7 -5 9 -18 17
-27 17 -12 0 -13 3 -5 8 9 5 -2 38 -38 117 -27 60 -54 112 -60 115 -5 4 -81 5
-168 2 l-158 -5 -6 24 c-9 34 -8 51 2 45 5 -3 31 1 57 9 27 8 63 15 80 15 17
0 37 7 44 15 7 8 29 15 50 15 58 0 101 11 107 28 9 21 -24 42 -65 42 -29 0
-32 3 -27 20 4 14 2 20 -8 20 -9 0 -19 15 -24 37 -8 35 -11 37 -78 53 -39 9
-88 25 -110 35 -22 10 -60 24 -85 30 -42 10 -45 12 -43 42 2 24 -2 35 -17 43
-17 9 -23 7 -37 -17 l-16 -28 -76 7 c-42 4 -98 13 -126 21 l-50 13 3 40 c2 21
10 58 19 82 14 37 17 40 28 25 7 -9 11 -24 8 -33z m1085 -23 c24 -25 20 -37
-11 -37 -11 0 -36 -9 -57 -21 -30 -17 -39 -30 -50 -71 -12 -43 -30 -74 -30
-51 1 48 64 172 97 192 25 14 27 14 51 -12z m-1224 -208 c-4 -7 0 -9 13 -5 13
4 29 -1 44 -14 21 -17 21 -19 4 -13 -11 3 -25 10 -31 14 -6 5 -14 6 -17 3 -9
-9 -28 6 -22 17 4 5 8 9 11 9 3 0 2 -5 -2 -11z m1072 -23 c-8 -41 -75 -190
-83 -183 -3 3 6 30 20 59 13 29 32 77 43 106 21 60 29 67 20 18z m-856 -61 c0
-5 -5 -3 -10 5 -5 8 -10 20 -10 25 0 6 5 3 10 -5 5 -8 10 -19 10 -25z m1650
-6 c0 -5 -4 -8 -9 -5 -5 4 -11 1 -13 -4 -5 -15 -78 -26 -78 -11 0 6 6 12 13
12 6 1 22 3 35 4 12 1 25 5 29 9 10 10 23 7 23 -5z m603 -88 c44 -32 52 -51
23 -51 -7 0 -24 10 -37 21 -13 12 -34 28 -46 36 -12 8 -19 21 -16 29 6 15 9
14 76 -35z m-4023 35 c0 -3 -4 -8 -10 -11 -5 -3 -10 -1 -10 4 0 6 5 11 10 11
6 0 10 -2 10 -4z m2337 -52 c-3 -3 -12 -4 -19 -1 -8 3 -5 6 6 6 11 1 17 -2 13
-5z m-2322 -44 c-3 -5 -13 -10 -21 -10 -8 0 -14 5 -14 10 0 6 9 10 21 10 11 0
17 -4 14 -10z m2922 -12 c-3 -8 -6 -5 -6 6 -1 11 2 17 5 13 3 -3 4 -12 1 -19z
m68 -78 c-3 -5 0 -12 6 -16 8 -4 9 -3 5 4 -11 18 0 14 41 -14 21 -14 37 -30
36 -35 -2 -4 2 -20 7 -34 7 -18 6 -25 -2 -25 -7 0 -4 -6 5 -12 15 -12 14 -15
-5 -38 -14 -16 -19 -19 -15 -7 4 9 3 17 -2 17 -4 0 -18 21 -31 48 -13 26 -31
53 -39 60 -14 10 -13 11 4 6 16 -5 17 -4 5 5 -8 6 -23 11 -33 11 -15 0 -16 -3
-7 -22 11 -22 10 -22 -4 -4 -10 12 -16 39 -16 70 l1 51 24 -28 c14 -16 23 -32
20 -37z m-1189 -26 c-6 -6 -14 -10 -19 -7 -12 7 -67 -7 -67 -18 0 -5 14 -9 30
-9 39 0 39 -16 -1 -24 -27 -5 -30 -9 -25 -31 4 -17 2 -25 -6 -26 -10 0 -10 -2
0 -6 8 -3 12 -26 12 -67 0 -37 6 -70 14 -81 18 -25 10 -44 -15 -38 -12 4 -19
14 -19 30 0 28 -45 74 -65 67 -17 -7 -23 4 -35 67 -9 44 -7 57 7 78 9 14 19
42 23 61 5 34 8 36 69 51 l65 16 21 -25 c17 -19 19 -29 11 -38z m1111 44 c-3
-8 -6 -5 -6 6 -1 11 2 17 5 13 3 -3 4 -12 1 -19z m143 -15 c0 -7 -39 17 -46
28 -3 6 5 3 20 -6 14 -10 26 -19 26 -22z m-153 -50 c-3 -10 -5 -2 -5 17 0 19
2 27 5 18 2 -10 2 -26 0 -35z m-570 11 c-3 -3 -12 -4 -19 -1 -8 3 -5 6 6 6 11
1 17 -2 13 -5z m-2447 -14 c-19 -13 -30 -13 -30 0 0 6 10 10 23 10 18 0 19 -2
7 -10z m144 -29 c3 -5 -8 -14 -26 -20 -47 -17 -56 -13 -23 9 34 22 41 24 49
11z m2876 6 c0 -2 -15 -16 -32 -33 l-33 -29 29 33 c28 30 36 37 36 29z m-3460
-15 c-1 -18 -83 -62 -115 -62 -43 0 -50 11 -26 41 15 20 29 24 80 26 33 1 61
-1 61 -5z m830 -6 c-8 -8 -26 -17 -40 -21 l-25 -6 25 20 c30 24 64 30 40 7z
m2703 -14 c-6 -14 -25 -12 -30 4 -2 5 5 10 16 10 11 0 17 -5 14 -14z m-3 -40
c0 -2 -8 -2 -17 -1 -44 5 -79 -15 -74 -43 0 -5 -3 -8 -9 -8 -14 0 -12 12 6 38
8 12 21 20 27 17 7 -3 4 0 -5 7 -15 11 -15 13 0 24 13 9 21 8 44 -9 15 -11 28
-22 28 -25z m-206 -47 c13 -14 28 -25 33 -25 5 0 14 -5 21 -12 6 -6 17 -13 24
-14 29 -5 127 -54 135 -67 4 -8 18 -20 31 -26 23 -12 23 -13 5 -26 -25 -20
-32 -18 -28 5 3 18 -2 20 -41 20 -24 0 -44 -4 -44 -10 0 -5 -7 -10 -15 -10 -8
0 -15 5 -15 10 0 6 6 10 13 10 8 0 8 3 -2 9 -12 8 -12 13 -3 24 10 12 9 16 -4
21 -9 3 -21 3 -26 -1 -7 -3 -8 -1 -4 5 5 8 0 12 -13 12 -12 0 -21 5 -21 11 0
6 -7 4 -15 -5 -19 -19 -45 -10 -45 15 0 12 -7 19 -19 19 -10 0 -24 6 -31 14
-6 8 -18 12 -26 9 -8 -3 -14 1 -14 11 0 9 -7 16 -16 16 -10 0 -13 6 -10 18 4
12 1 19 -9 20 -8 1 -22 3 -30 4 -21 2 -19 7 7 17 26 9 128 -37 162 -74z
m-3344 60 c-7 -8 -17 -15 -22 -15 -6 0 -5 7 2 15 7 8 17 15 22 15 6 0 5 -7 -2
-15z m485 -25 c-3 -5 -13 -10 -21 -10 -8 0 -12 5 -9 10 3 6 13 10 21 10 8 0
12 -4 9 -10z m2511 -23 c4 -4 0 -7 -9 -7 -9 0 -18 4 -21 9 -7 10 20 9 30 -2z
m511 -3 c-3 -3 -12 -4 -19 -1 -8 3 -5 6 6 6 11 1 17 -2 13 -5z m-738 -142 c45
-68 84 -129 88 -138 8 -21 -158 -479 -168 -462 -4 8 -10 26 -13 40 -5 31 -73
176 -89 193 -7 6 -21 31 -32 55 l-19 43 69 203 c38 112 72 200 76 196 4 -4 43
-62 88 -130z m736 118 c8 -13 -5 -13 -25 0 -13 8 -13 10 2 10 9 0 20 -4 23
-10z m-48 -22 c-3 -8 -6 -5 -6 6 -1 11 2 17 5 13 3 -3 4 -12 1 -19z m1251 10
c-3 -7 -11 -13 -18 -13 -7 0 -15 6 -17 13 -3 7 4 12 17 12 13 0 20 -5 18 -12z
m-1759 -44 c2 -2 -7 -4 -22 -4 -14 0 -29 -4 -32 -10 -8 -13 -62 -13 -70 0 -4
7 3 9 19 6 15 -3 24 -1 21 5 -4 5 -11 7 -16 4 -5 -4 -9 -1 -9 5 0 7 17 9 53 4
28 -4 54 -8 56 -10z m-370 -141 c-26 -76 -54 -156 -62 -178 l-15 -40 1 36 c1
21 6 34 11 31 5 -3 6 0 2 6 -4 7 -14 12 -22 12 -8 0 -14 7 -14 15 0 13 -13 15
-75 12 -41 -2 -75 -1 -75 4 0 4 -9 5 -20 2 -31 -8 -24 19 10 42 29 19 43 43
18 30 -7 -4 -4 1 6 9 11 9 16 16 10 16 -5 0 -10 20 -12 44 -2 43 -2 44 28 41
17 -1 33 -5 37 -9 14 -13 44 -5 100 29 32 19 72 34 89 35 l31 0 -48 -137z
m348 111 c-3 -3 -12 -4 -19 -1 -8 3 -5 6 6 6 11 1 17 -2 13 -5z m-692 -43 c4
-12 12 -18 21 -14 7 3 14 0 14 -6 0 -6 6 -11 13 -11 18 0 36 -35 30 -59 -7
-29 -23 -27 -23 3 0 14 -5 28 -12 32 -7 4 -8 3 -4 -5 9 -14 -12 -81 -25 -81
-11 0 -11 -2 1 40 10 36 5 70 -10 70 -5 0 -10 -10 -12 -22 -2 -12 -9 -24 -17
-26 -10 -3 -12 0 -8 12 4 10 7 33 7 52 0 37 15 46 25 15z m687 -43 c5 1 7 -2
3 -8 -4 -6 -1 -17 5 -25 9 -11 9 -21 1 -42 l-11 -28 5 28 c4 20 -3 40 -25 75
-18 26 -22 36 -9 22 12 -14 26 -24 31 -22z m96 25 c-10 -2 -28 -2 -40 0 -13 2
-5 4 17 4 22 1 32 -1 23 -4z m2096 -19 c3 -8 2 -12 -4 -9 -6 3 -10 10 -10 16
0 14 7 11 14 -7z m-2134 -10 c0 -8 -19 -13 -24 -6 -3 5 1 9 9 9 8 0 15 -2 15
-3z m1853 -19 c-3 -16 -83 -30 -92 -16 -4 6 -15 9 -24 5 -17 -6 -23 6 -10 20
11 11 128 2 126 -9z m-4846 -77 c-3 -7 -5 -2 -5 12 0 14 2 19 5 13 2 -7 2 -19
0 -25z m663 -23 c0 -9 -10 -15 -25 -15 -18 0 -25 5 -25 18 0 10 3 22 6 25 10
10 44 -12 44 -28z m-60 11 c0 -20 -13 -27 -30 -15 -13 8 -13 10 0 19 21 14 30
12 30 -4z m110 -5 c0 -5 -9 -11 -20 -14 -13 -3 -20 0 -20 9 0 8 9 14 20 14 11
0 20 -4 20 -9z m2189 -90 c-17 -51 -33 -90 -35 -88 -2 2 10 45 27 96 17 51 33
90 35 88 2 -2 -10 -45 -27 -96z m-1613 -20 c-9 -14 -26 -14 -26 0 0 5 5 7 12
3 8 -5 9 -1 4 12 -5 14 -4 16 5 7 6 -6 8 -16 5 -22z m-65 -4 c-10 -9 -11 -8
-5 6 3 10 9 15 12 12 3 -3 0 -11 -7 -18z m1774 -35 c-41 -9 12 -52 68 -53 41
-2 40 -2 -13 -9 -30 -5 -79 -8 -109 -9 -43 -1 -52 2 -48 14 4 8 2 17 -3 20 -6
4 -10 11 -10 16 0 6 4 7 10 4 5 -3 7 0 4 8 -3 8 1 17 9 20 9 3 17 -2 20 -14 3
-10 11 -19 18 -19 10 0 10 3 1 12 -17 17 -15 28 10 37 15 5 27 3 40 -8 16 -14
16 -16 3 -19z m2161 -30 c13 -9 27 -45 14 -37 -5 3 -19 1 -31 -5 -15 -9 -24
-9 -32 -1 -8 8 -6 11 7 11 9 0 14 5 11 10 -13 21 10 37 31 22z m-481 -11 c3
-5 1 -12 -5 -16 -5 -3 -10 1 -10 9 0 18 6 21 15 7z m40 -1 c3 -5 1 -10 -4 -10
-6 0 -11 5 -11 10 0 6 2 10 4 10 3 0 8 -4 11 -10z m-1705 -50 c0 -5 -8 -10
-17 -11 -15 0 -15 -2 2 -9 11 -5 27 -9 35 -9 10 0 9 3 -3 8 -33 13 3 31 43 22
31 -7 33 -9 15 -17 -18 -8 -16 -9 13 -14 39 -6 47 -22 14 -27 -16 -2 -21 1
-16 9 4 7 3 8 -4 4 -25 -15 -10 -26 38 -26 42 0 50 3 50 19 0 21 20 32 53 30
16 -1 14 -3 -8 -8 -21 -4 -31 -13 -33 -28 -3 -20 -10 -22 -70 -25 -61 -3 -67
-5 -73 -28 -5 -18 -7 -20 -8 -6 -1 13 -6 17 -21 13 -14 -4 -20 0 -21 11 0 11
-2 12 -6 5 -9 -24 -23 -13 -23 17 0 20 -6 33 -17 37 -21 8 -34 24 -27 35 7 12
84 10 84 -2z m2020 0 c0 -5 -7 -10 -15 -10 -8 0 -15 5 -15 10 0 6 7 10 15 10
8 0 15 -4 15 -10z m71 -19 c8 -20 6 -21 -12 -16 -16 5 -19 4 -14 -5 5 -8 4
-11 -2 -7 -13 8 -4 59 10 54 5 -1 14 -13 18 -26z m-401 -31 c0 -5 -4 -10 -10
-10 -5 0 -10 5 -10 10 0 6 5 10 10 10 6 0 10 -4 10 -10z m120 -10 c0 -5 -2
-10 -4 -10 -3 0 -8 5 -11 10 -3 6 -1 10 4 10 6 0 11 -4 11 -10z m-30 -11 c0
-3 -10 -5 -22 -5 -13 1 -34 -2 -46 -6 -28 -10 -51 0 -31 13 16 9 99 8 99 -2z
m-1395 -9 c3 -6 -1 -7 -9 -4 -18 7 -21 14 -7 14 6 0 13 -4 16 -10z m-2999 -46
c15 -12 16 -16 5 -21 -11 -4 -8 -10 10 -24 21 -16 22 -19 5 -19 -15 0 -17 -5
-12 -30 5 -26 3 -30 -18 -30 -29 0 -39 10 -25 26 7 9 5 14 -10 19 -12 4 -18
12 -14 21 3 8 0 21 -7 29 -10 12 -10 15 3 15 8 0 17 7 21 15 7 19 17 19 42 -1z
m2775 -6 c11 -21 11 -22 -4 -9 -10 7 -17 17 -17 22 0 15 9 10 21 -13z m384
-118 c3 -6 -1 -7 -9 -4 -18 7 -21 14 -7 14 6 0 13 -4 16 -10z m-3231 -71 c-8
-14 -24 -10 -24 6 0 9 6 12 15 9 8 -4 12 -10 9 -15z m40 -15 c18 -7 21 -39 5
-50 -6 -3 -16 -1 -22 6 -9 10 -9 11 0 6 6 -3 15 -1 18 5 4 6 -2 13 -14 16 -11
3 -18 9 -15 14 6 11 8 11 28 3z m50 -31 c-5 -5 -12 -12 -16 -18 -4 -6 -8 -2
-8 8 0 9 7 17 17 17 9 0 12 -3 7 -7z m16 -33 c0 -5 -4 -10 -10 -10 -5 0 -10 5
-10 10 0 6 5 10 10 10 6 0 10 -4 10 -10z m2605 -245 c190 -450 325 -778 322
-782 -3 -2 -187 431 -424 997 -8 19 -10 31 -5 25 6 -5 54 -113 107 -240z m138
238 c-13 -2 -35 -2 -50 0 -16 2 -5 4 22 4 28 0 40 -2 28 -4z m-1406 -55 c-2
-13 -4 -5 -4 17 -1 22 1 32 4 23 2 -10 2 -28 0 -40z m1744 -10 c22 -6 39 -15
39 -20 0 -11 -9 -9 -55 12 -46 21 -39 25 16 8z m-1641 -12 c0 -3 -4 -8 -10
-11 -5 -3 -10 -1 -10 4 0 6 5 11 10 11 6 0 10 -2 10 -4z m180 -16 c0 -5 -7
-10 -16 -10 -8 0 -12 5 -9 10 3 6 10 10 16 10 5 0 9 -4 9 -10z m320 -20 c0 -5
-4 -10 -10 -10 -5 0 -10 5 -10 10 0 6 5 10 10 10 6 0 10 -4 10 -10z m-1867
-207 c-7 -2 -19 -2 -25 0 -7 3 -2 5 12 5 14 0 19 -2 13 -5z m772 -13 c-11 -5
-36 -8 -55 -8 l-35 0 30 8 c17 4 41 8 55 8 23 1 23 0 5 -8z m452 -42 c-3 -7
-5 -2 -5 12 0 14 2 19 5 13 2 -7 2 -19 0 -25z m-10 -80 c-3 -8 -6 -5 -6 6 -1
11 2 17 5 13 3 -3 4 -12 1 -19z m-1741 -25 c-3 -8 2 -13 14 -13 11 0 20 -3 20
-7 0 -5 -23 -8 -50 -8 -53 0 -66 15 -28 32 31 14 50 12 44 -4z m1704 -50 c0
-54 -22 -156 -31 -142 -7 12 -9 11 -10 -1 0 -8 -9 4 -19 28 -11 23 -22 42 -24
42 -3 0 -3 -21 1 -46 6 -45 5 -46 -15 -35 -15 8 -22 8 -25 -2 -10 -24 -7 22 3
48 16 41 15 105 0 115 -9 6 5 10 40 13 30 2 61 4 68 5 7 1 12 -9 12 -25z
m2272 -30 c5 -2 13 -13 18 -24 9 -17 7 -19 -18 -19 -20 0 -35 9 -51 31 l-23
31 33 -7 c19 -4 37 -9 41 -12z m-3512 -54 c0 -5 5 -7 10 -4 6 3 10 0 10 -8 0
-15 -20 -27 -45 -27 -15 0 -28 27 -19 41 7 13 44 11 44 -2z m1207 -181 c-3 -8
-6 -5 -6 6 -1 11 2 17 5 13 3 -3 4 -12 1 -19z m1718 -98 c3 -5 2 -10 -4 -10
-5 0 -13 5 -16 10 -3 6 -2 10 4 10 5 0 13 -4 16 -10z m15 -175 c0 -5 -5 -3
-10 5 -5 8 -10 20 -10 25 0 6 5 3 10 -5 5 -8 10 -19 10 -25z m-579 -172 c0
-10 2 -28 3 -41 4 -34 -12 -12 -17 26 -3 17 -1 32 4 32 5 0 9 -8 10 -17z m689
-115 c0 -16 -4 -28 -10 -28 -5 0 -10 11 -10 24 0 13 -2 39 -5 57 l-5 34 14
-30 c9 -16 15 -42 16 -57z m-661 -32 c6 -22 6 -35 1 -30 -4 5 -11 27 -14 49
-7 45 -2 38 13 -19z m28 -138 c-3 -8 -6 -5 -6 6 -1 11 2 17 5 13 3 -3 4 -12 1
-19z m20 -80 c-3 -8 -6 -5 -6 6 -1 11 2 17 5 13 3 -3 4 -12 1 -19z m-2082
-189 c4 -6 13 -8 21 -5 18 7 18 2 1 -13 -11 -8 -18 -6 -32 9 -10 11 -13 20 -7
20 6 0 14 -5 17 -11z m1304 -83 c18 -19 21 -31 16 -59 -7 -34 -8 -35 -35 -26
-21 8 -29 18 -32 42 -8 69 11 85 51 43z m-979 -23 c0 -7 -39 17 -46 28 -3 6 5
3 20 -6 14 -10 26 -19 26 -22z m1100 -93 c0 -5 -7 -10 -15 -10 -8 0 -15 5 -15
10 0 6 7 10 15 10 8 0 15 -4 15 -10z m120 -40 c0 -5 -4 -10 -10 -10 -5 0 -10
5 -10 10 0 6 5 10 10 10 6 0 10 -4 10 -10z m147 -56 c-3 -3 -12 -4 -19 -1 -8
3 -5 6 6 6 11 1 17 -2 13 -5z m-1657 -24 c0 -5 -5 -10 -11 -10 -5 0 -7 5 -4
10 3 6 8 10 11 10 2 0 4 -4 4 -10z m1053 -95 c8 -18 -11 -31 -25 -17 -11 11
-3 32 12 32 4 0 10 -7 13 -15z m142 -13 c-3 -3 -11 0 -18 7 -9 10 -8 11 6 5
10 -3 15 -9 12 -12z m-1045 -37 c0 -8 -4 -15 -10 -15 -5 0 -7 7 -4 15 4 8 8
15 10 15 2 0 4 -7 4 -15z m901 -5 c10 0 12 -43 3 -53 -14 -14 -24 5 -13 25 6
11 7 18 2 15 -4 -3 -15 2 -23 11 -13 14 -12 15 4 9 10 -4 22 -7 27 -7z m279 0
c8 -5 11 -10 5 -10 -5 0 -17 5 -25 10 -8 5 -10 10 -5 10 6 0 17 -5 25 -10z
m-496 -50 c-7 -6 -24 22 -23 40 0 9 6 5 14 -10 7 -14 11 -27 9 -30z m-857 -2
c-3 -8 -6 -5 -6 6 -1 11 2 17 5 13 3 -3 4 -12 1 -19z"/>
<path d="M2140 4400 c0 -5 5 -10 10 -10 6 0 10 5 10 10 0 6 -4 10 -10 10 -5 0
-10 -4 -10 -10z"/>
<path d="M2578 4213 c12 -2 30 -2 40 0 9 3 -1 5 -23 4 -22 0 -30 -2 -17 -4z"/>
<path d="M2658 4213 c6 -2 18 -2 25 0 6 3 1 5 -13 5 -14 0 -19 -2 -12 -5z"/>
<path d="M2808 4193 c7 -3 16 -2 19 1 4 3 -2 6 -13 5 -11 0 -14 -3 -6 -6z"/>
<path d="M2886 4068 c3 -5 10 -6 15 -3 13 9 11 12 -6 12 -8 0 -12 -4 -9 -9z"/>
<path d="M3850 3349 c0 -5 5 -7 10 -4 6 3 10 8 10 11 0 2 -4 4 -10 4 -5 0 -10
-5 -10 -11z"/>
<path d="M2427 3395 c-11 -7 -25 -11 -32 -8 -11 4 -13 -4 -8 -34 7 -49 18 -61
32 -34 7 12 18 21 25 21 16 0 29 27 19 42 -3 7 -1 8 5 4 7 -4 12 -1 12 8 0 20
-29 20 -53 1z"/>
<path d="M3680 3376 c0 -2 7 -7 16 -10 8 -3 12 -2 9 4 -6 10 -25 14 -25 6z"/>
<path d="M3545 3250 c3 -5 8 -10 11 -10 2 0 4 5 4 10 0 6 -5 10 -11 10 -5 0
-7 -4 -4 -10z"/>
<path d="M2860 3099 c0 -9 7 -22 15 -29 8 -7 15 -19 15 -26 0 -8 4 -14 8 -14
5 0 16 -16 26 -36 9 -20 19 -34 22 -31 7 6 -37 89 -66 127 -15 19 -20 21 -20
9z"/>
<path d="M2880 3000 c6 -11 13 -20 16 -20 2 0 0 9 -6 20 -6 11 -13 20 -16 20
-2 0 0 -9 6 -20z"/>
<path d="M2860 2974 c0 -6 7 -19 16 -30 14 -18 14 -18 3 6 -14 31 -19 36 -19
24z"/>
<path d="M2850 2944 c0 -6 7 -19 16 -30 14 -18 14 -18 3 6 -14 31 -19 36 -19
24z"/>
<path d="M2727 3013 c-4 -3 -7 -16 -6 -27 0 -19 1 -19 10 3 10 24 8 36 -4 24z"/>
<path d="M3206 2712 c-2 -4 -1 -14 3 -20 6 -10 11 -9 21 3 11 13 10 14 -5 9
-13 -5 -16 -4 -11 4 4 7 5 12 2 12 -3 0 -7 -4 -10 -8z"/>
<path d="M3608 4743 c7 -3 16 -2 19 1 4 3 -2 6 -13 5 -11 0 -14 -3 -6 -6z"/>
<path d="M3600 4670 c0 -5 14 -10 32 -10 36 0 35 4 -4 14 -17 4 -28 2 -28 -4z"/>
<path d="M5380 4582 c0 -10 -3 -22 -7 -26 -4 -4 -9 -25 -10 -48 -3 -43 -31
-77 -45 -55 -6 9 -10 8 -17 -2 -5 -7 -14 -10 -20 -7 -16 10 -26 -21 -12 -38 9
-11 7 -15 -9 -19 -14 -3 -19 -12 -18 -27 2 -17 -4 -25 -27 -33 -16 -5 -37 -16
-46 -23 -21 -19 -49 -18 -49 1 0 8 -9 15 -20 15 -15 0 -20 -7 -20 -24 0 -16
-7 -27 -20 -31 -24 -8 -27 -35 -3 -35 13 0 14 -3 5 -12 -9 -9 -18 -6 -38 13
-15 13 -24 19 -20 12 10 -18 -9 -25 -75 -28 -33 -2 -66 -8 -72 -13 -20 -16
-94 -24 -115 -13 -16 8 -21 7 -26 -5 -4 -9 -2 -12 5 -8 6 4 14 2 18 -3 3 -6
51 -26 106 -46 55 -19 201 -72 324 -116 123 -45 226 -81 227 -81 2 0 4 151 4
335 0 217 -4 335 -10 335 -5 0 -10 -8 -10 -18z"/>
<path d="M5140 4340 c0 -5 7 -10 16 -10 8 0 12 5 9 10 -3 6 -10 10 -16 10 -5
0 -9 -4 -9 -10z"/>
<path d="M2620 2266 c0 -2 7 -9 15 -16 13 -11 14 -10 9 4 -5 14 -24 23 -24 12z"/>
<path d="M1955 2200 c3 -5 8 -10 11 -10 2 0 4 5 4 10 0 6 -5 10 -11 10 -5 0
-7 -4 -4 -10z"/>
<path d="M1951 2014 c0 -11 3 -14 6 -6 3 7 2 16 -1 19 -3 4 -6 -2 -5 -13z"/>
<path d="M2697 1112 c-14 -3 -17 -10 -13 -25 3 -12 6 -25 6 -29 0 -5 12 -8 26
-8 24 0 25 3 19 28 -8 33 -15 40 -38 34z m23 -22 c0 -5 -4 -10 -10 -10 -5 0
-10 5 -10 10 0 6 5 10 10 10 6 0 10 -4 10 -10z"/>
<path d="M2597 1103 c-4 -3 -7 -19 -7 -35 0 -28 2 -29 38 -26 34 3 37 6 40 36
3 30 2 32 -31 32 -18 0 -37 -3 -40 -7z"/>
<path d="M2503 1093 c-25 -10 -12 -99 16 -106 14 -4 14 -5 -1 -6 -18 -1 -23
-17 -12 -45 4 -11 19 -16 45 -16 37 0 39 2 39 30 0 22 -6 33 -22 40 -18 7 -19
9 -5 9 18 1 21 18 11 70 -5 26 -11 31 -33 30 -14 0 -32 -3 -38 -6z m57 -127
c0 -3 -4 -8 -10 -11 -5 -3 -10 -1 -10 4 0 6 5 11 10 11 6 0 10 -2 10 -4z"/>
<path d="M2411 1083 c-22 -4 -23 -7 -16 -61 4 -31 9 -59 11 -61 2 -3 21 0 42
5 40 10 40 9 26 92 -5 33 -10 35 -63 25z"/>
<path d="M2312 1073 c-21 -4 -22 -7 -16 -76 4 -40 11 -78 17 -84 6 -9 6 -13
-2 -13 -7 0 -9 -9 -4 -27 4 -16 7 -48 7 -73 1 -30 5 -45 14 -44 6 1 26 2 42 3
27 1 30 4 30 36 0 34 -2 35 -37 36 -34 2 -35 2 -8 6 17 3 34 8 38 12 15 15 -4
60 -26 64 -21 4 -21 4 1 6 22 1 22 3 16 69 -9 100 -7 97 -72 85z m48 -98 c0
-8 -4 -15 -9 -15 -13 0 -22 16 -14 24 11 11 23 6 23 -9z"/>
<path d="M2218 1063 l-37 -4 2 -67 c2 -66 3 -67 32 -73 l30 -7 -27 -1 c-25 -1
-28 -5 -28 -37 l0 -37 38 7 c20 3 43 6 50 6 7 0 12 14 12 35 0 27 -4 35 -17
35 -16 1 -16 2 -2 10 11 6 15 18 12 34 -4 19 -13 26 -37 29 l-31 4 33 1 c31 2
33 4 30 34 -3 35 -6 36 -60 31z"/>
<path d="M2633 1033 c-29 -4 -33 -8 -33 -34 0 -27 2 -29 39 -29 22 0 42 3 44
8 7 10 -4 62 -12 60 -3 0 -21 -3 -38 -5z m34 -19 c-3 -3 -12 -4 -19 -1 -8 3
-5 6 6 6 11 1 17 -2 13 -5z"/>
<path d="M2700 1011 c0 -18 7 -34 18 -40 9 -6 11 -11 5 -11 -18 0 -16 -45 2
-63 8 -9 10 -17 5 -19 -6 -2 -8 -17 -4 -36 5 -26 11 -32 28 -30 27 4 34 49 11
72 -9 9 -12 16 -6 16 11 0 6 42 -7 65 -3 5 -6 23 -6 40 -1 23 -6 31 -23 33
-20 3 -23 -1 -23 -27z"/>
<path d="M2479 943 c-1 -10 -1 -21 0 -25 0 -5 -5 -8 -13 -8 -25 0 -46 12 -46
26 0 8 -5 14 -11 14 -7 0 -9 -9 -5 -22 3 -13 6 -26 6 -30 0 -5 18 -8 40 -8 39
0 40 1 40 35 0 36 -9 50 -11 18z"/>
<path d="M2610 930 c0 -22 6 -33 23 -40 17 -7 18 -9 5 -9 -28 -1 -24 -59 5
-71 17 -7 18 -9 5 -9 -12 -1 -18 -9 -18 -23 0 -30 10 -45 35 -51 17 -4 17 -5
-4 -6 -19 -1 -22 -5 -17 -23 4 -13 10 -49 13 -80 l6 -58 41 -1 41 -2 -35 -6
c-33 -6 -35 -8 -34 -44 1 -21 3 -39 5 -41 2 -1 24 -1 47 2 l44 4 -6 42 c-3 22
-7 50 -9 61 -3 11 -5 30 -6 43 -1 19 -7 22 -43 24 l-43 1 38 4 c33 4 37 7 37
33 0 16 -7 35 -15 43 -8 9 -11 17 -6 19 5 2 6 18 4 36 -4 24 -11 32 -27 33
-17 1 -17 2 -3 6 22 6 24 61 1 70 -12 4 -12 8 -3 13 7 5 9 18 5 34 -6 23 -12
26 -46 26 -38 0 -40 -2 -40 -30z m110 -230 c0 -5 -5 -10 -11 -10 -5 0 -7 5 -4
10 3 6 8 10 11 10 2 0 4 -4 4 -10z"/>
<path d="M2510 898 c0 -7 3 -23 6 -36 6 -19 12 -23 43 -20 33 3 36 6 39 36 3
32 3 32 -42 32 -30 0 -46 -4 -46 -12z m63 -13 c-6 -17 -25 -15 -31 3 -2 7 5
12 17 12 14 0 19 -5 14 -15z"/>
<path d="M2412 848 c3 -28 7 -34 31 -36 16 -2 36 0 45 3 13 6 9 10 -18 20 -23
8 -34 18 -32 29 2 9 -4 16 -13 16 -12 0 -15 -8 -13 -32z"/>
<path d="M2222 833 c-32 -4 -33 -6 -30 -46 l3 -42 44 2 c55 3 64 11 56 57 -5
25 -12 36 -24 34 -9 0 -31 -3 -49 -5z m54 -58 c-3 -9 -18 -15 -36 -15 -27 0
-30 3 -30 29 0 23 5 30 23 33 25 4 52 -25 43 -47z"/>
<path d="M2520 818 c1 -42 13 -58 44 -58 17 0 38 5 46 10 11 7 5 10 -24 10
-35 0 -38 2 -34 25 4 19 1 25 -13 25 -11 0 -19 -6 -19 -12z"/>
<path d="M2757 802 c-14 -3 -17 -11 -15 -35 2 -27 8 -33 31 -35 28 -3 29 -2
22 30 -8 40 -14 46 -38 40z"/>
<path d="M2420 765 c0 -35 0 -35 45 -35 51 0 62 17 13 22 -39 4 -48 25 -16 37
21 9 21 10 -9 10 -31 1 -33 -1 -33 -34z"/>
<path d="M2333 743 c-18 -7 -17 -73 1 -73 26 0 76 13 76 19 0 4 -17 5 -39 3
-37 -4 -38 -3 -34 22 4 21 11 26 33 26 19 0 30 -6 33 -17 4 -14 5 -12 6 5 1
19 -4 22 -31 21 -18 0 -39 -3 -45 -6z"/>
<path d="M2530 736 c0 -8 4 -25 9 -38 8 -21 14 -24 46 -20 41 5 50 18 36 53
l-10 24 0 -26 c-1 -22 -7 -28 -30 -31 -26 -4 -29 -2 -27 24 1 17 -3 28 -11 28
-7 0 -13 -6 -13 -14z"/>
<path d="M2458 713 c7 -3 16 -2 19 1 4 3 -2 6 -13 5 -11 0 -14 -3 -6 -6z"/>
<path d="M2754 689 c3 -17 6 -36 6 -41 0 -5 12 -8 28 -6 24 3 27 7 23 33 -4
41 -8 45 -38 45 -23 0 -25 -3 -19 -31z"/>
<path d="M2430 677 c0 -33 3 -37 28 -38 23 -2 24 -2 5 -6 -19 -4 -23 -11 -23
-45 l0 -40 43 7 c55 9 54 9 49 45 -3 20 -12 35 -26 40 -17 7 -18 9 -3 9 11 1
17 9 17 24 -1 20 -2 20 -11 5 -6 -11 -22 -18 -42 -18 -24 0 -28 3 -17 10 13 8
13 11 -2 27 -17 16 -18 16 -18 -20z m84 -56 c11 -18 -6 -42 -28 -39 -24 3 -29
30 -6 40 21 9 28 9 34 -1z"/>
<path d="M2351 663 c-31 -4 -33 -6 -27 -35 3 -17 6 -34 6 -39 0 -9 71 0 83 11
5 4 7 20 5 36 l-3 29 -14 -24 c-7 -13 -8 -21 -2 -17 6 4 11 3 11 -2 0 -6 -15
-12 -34 -14 -32 -4 -34 -2 -24 17 6 11 18 25 27 32 9 7 14 12 11 11 -3 -1 -20
-3 -39 -5z"/>
<path d="M2551 661 c-9 -6 -11 -18 -6 -40 6 -27 11 -31 43 -32 l37 -2 -35 -6
c-25 -4 -35 -11 -34 -23 3 -61 2 -59 47 -56 38 3 42 6 45 31 2 16 0 36 -3 45
-4 10 -8 33 -9 52 -1 33 -3 35 -36 38 -19 1 -41 -2 -49 -7z m69 -10 c0 -5 3
-16 6 -25 5 -13 -1 -16 -25 -16 -17 0 -31 4 -31 9 0 5 -3 16 -6 25 -5 13 1 16
25 16 17 0 31 -4 31 -9z m4 -100 c3 -5 -1 -12 -10 -15 -22 -9 -24 -8 -24 9 0
16 25 21 34 6z"/>
<path d="M2772 593 c3 -33 7 -38 31 -41 23 -3 27 0 27 22 0 40 -11 56 -37 56
-22 0 -24 -4 -21 -37z"/>
<path d="M2343 573 c-14 -5 -18 -69 -5 -76 15 -9 84 6 89 19 3 8 2 25 -1 39
-5 20 -12 25 -39 24 -17 0 -38 -3 -44 -6z m54 -33 c-2 -25 -30 -23 -35 3 -2
11 3 17 17 17 14 0 19 -6 18 -20z"/>
<path d="M2464 540 c-16 -6 -19 -15 -16 -44 4 -31 8 -36 31 -37 l26 -1 -25 -7
c-20 -6 -24 -13 -22 -37 5 -50 8 -53 49 -47 50 7 54 12 46 56 -4 29 -10 37
-27 38 -21 0 -21 0 0 9 16 6 19 15 16 44 -4 31 -8 36 -31 35 -14 0 -35 -4 -47
-9z m50 -16 c26 -10 20 -44 -8 -44 -17 0 -25 7 -28 25 -5 26 5 31 36 19z m9
-120 c-6 -16 -42 -29 -51 -19 -4 4 -1 10 6 12 6 3 12 11 12 18 0 8 7 11 19 8
11 -3 17 -11 14 -19z"/>
<path d="M2786 532 c-10 -17 10 -77 28 -80 28 -6 38 12 31 52 -6 29 -12 36
-31 36 -12 0 -25 -3 -28 -8z"/>
<path d="M2605 490 c-39 -5 -40 -6 -37 -40 2 -19 11 -41 20 -47 9 -8 11 -13 4
-13 -13 0 -17 -76 -4 -84 4 -2 27 -2 50 1 39 5 42 8 42 37 0 40 -9 53 -40 59
-24 4 -24 4 4 6 27 1 28 2 21 39 -8 47 -11 49 -60 42z m35 -40 c13 -9 13 -11
0 -20 -26 -17 -49 -12 -43 10 6 22 20 25 43 10z m28 -102 c2 -11 -6 -18 -28
-23 -38 -8 -40 -7 -29 23 10 27 52 27 57 0z"/>
<path d="M2358 483 c-14 -3 -18 -15 -18 -45 l0 -41 45 6 c26 2 49 7 52 10 3 3
2 22 -1 42 -6 30 -11 35 -34 34 -15 -1 -35 -3 -44 -6z m62 -38 c0 -21 -5 -25
-30 -25 -25 0 -30 4 -30 25 0 21 5 25 30 25 25 0 30 -4 30 -25z"/>
<path d="M2693 452 c-8 -5 -10 -21 -6 -45 5 -35 8 -37 42 -37 53 0 64 11 56
54 -7 34 -10 36 -44 36 -20 0 -41 -4 -48 -8z"/>
<path d="M2823 442 c-25 -4 -27 -11 -17 -61 6 -27 11 -32 33 -29 24 3 26 6 23
43 -4 46 -9 52 -39 47z"/>
<path d="M2738 363 c-34 -4 -38 -7 -38 -33 0 -49 9 -60 49 -60 52 0 60 9 52
54 -7 43 -9 44 -63 39z"/>
<path d="M2820 316 c0 -14 4 -36 9 -49 8 -20 15 -24 36 -19 21 4 26 9 21 26
-3 11 -6 31 -6 44 0 18 -6 22 -30 22 -25 0 -30 -4 -30 -24z"/>
<path d="M1430 280 c0 -5 -6 -10 -14 -10 -8 0 -17 -7 -20 -16 -4 -11 -2 -15 8
-11 10 4 13 1 9 -9 -3 -7 -11 -14 -17 -14 -15 0 -66 -55 -66 -71 0 -6 4 -9 8
-7 57 23 152 62 170 69 15 6 22 15 19 24 -3 7 -1 16 6 18 7 3 -3 8 -21 12 -18
4 -35 12 -38 16 -7 12 -44 11 -44 -1z"/>
<path d="M1617 133 c-9 -2 -15 -9 -12 -14 4 -5 1 -9 -5 -9 -37 0 -197 -109
-162 -110 7 0 27 13 45 30 27 25 40 30 85 30 45 0 52 -3 52 -20 0 -24 3 -24
66 -4 60 20 60 20 68 65 6 35 6 36 -26 36 -18 0 -39 -4 -45 -10 -9 -6 -13 -6
-13 2 0 11 -20 13 -53 4z"/>
<path d="M1348 67 c-8 -12 -20 -32 -27 -44 -21 -40 11 -27 51 20 34 41 35 43
13 45 -14 1 -29 -7 -37 -21z"/>
</g>
</svg>
